<?xml version="1.0" encoding="utf-8"?>
<!-- Generator: Adobe Illustrator 24.1.0, SVG Export Plug-In . SVG Version: 6.00 Build 0)  -->
<svg version="1.1" id="Layer_1" xmlns="http://www.w3.org/2000/svg" xmlns:xlink="http://www.w3.org/1999/xlink" x="0px" y="0px"
	 viewBox="0 0 1817.72 542.9" style="enable-background:new 0 0 1817.72 542.9;" xml:space="preserve">
<style type="text/css">
	.st0{fill:url(#SVGID_1_);}
	.st1{fill:url(#SVGID_2_);}
	.st2{fill:url(#SVGID_3_);}
	.st3{fill:url(#SVGID_4_);}
	.st4{fill:url(#SVGID_5_);}
	.st5{fill:url(#SVGID_6_);}
	.st6{fill:url(#SVGID_7_);}
	.st7{fill:url(#SVGID_8_);}
	.st8{fill:url(#SVGID_9_);}
	.st9{fill:url(#SVGID_10_);}
	.st10{fill:url(#SVGID_11_);}
	.st11{fill:url(#SVGID_12_);}
	.st12{fill:url(#SVGID_13_);}
	.st13{fill:url(#SVGID_14_);}
	.st14{fill:url(#SVGID_15_);}
	.st15{fill:url(#SVGID_16_);}
	.st16{fill:url(#SVGID_17_);}
	.st17{fill:url(#SVGID_18_);}
	.st18{fill:url(#SVGID_19_);}
	.st19{fill:url(#SVGID_20_);}
	.st20{fill:url(#SVGID_21_);}
	.st21{fill:url(#SVGID_22_);}
	.st22{fill:url(#SVGID_23_);}
	.st23{fill:url(#SVGID_24_);}
	.st24{fill:url(#SVGID_25_);}
	.st25{fill:url(#SVGID_26_);}
	.st26{fill:url(#SVGID_27_);}
	.st27{fill:url(#SVGID_28_);}
	.st28{fill:url(#SVGID_29_);}
</style>
<g>
	<g>
		<g>
			<linearGradient id="SVGID_1_" gradientUnits="userSpaceOnUse" x1="605.0292" y1="146.4189" x2="605.0292" y2="379.5869">
				<stop  offset="0" style="stop-color:#16498D"/>
				<stop  offset="1" style="stop-color:#04A0D4"/>
			</linearGradient>
			<path class="st0" d="M719.21,286.72H546.74c6.43,26.91,29.75,43.81,61.49,43.81c22.12,0,35.41-6.04,49.06-22.1h58.33
				c-14.91,45.82-61.14,71.15-106.16,71.15c-67.96,0-120.63-50.67-120.63-115.78c0-65.56,51.87-117.39,117.4-117.39
				c66.35,0,115,50.68,115,119.79C721.23,274.25,720.83,279.09,719.21,286.72z M607.05,195.46c-31.76,0-53.48,15.68-61.94,44.24
				h123.44C661.72,211.13,640.02,195.46,607.05,195.46z"/>
			<linearGradient id="SVGID_2_" gradientUnits="userSpaceOnUse" x1="902.5245" y1="146.4189" x2="902.5245" y2="374.4005">
				<stop  offset="0" style="stop-color:#16498D"/>
				<stop  offset="1" style="stop-color:#04A0D4"/>
			</linearGradient>
			<path class="st1" d="M1016.09,374.4V252.17c0-44.62-16.9-56.71-41.78-56.71c-29.79,0-45.05,16.09-45.05,69.16V374.4h-53.48
				V252.17c0-43.83-15.29-56.71-43.45-56.71c-30.92,0-43.4,16.48-43.4,69.16V374.4h-53.46V151.64h49.05v20.9
				c15.65-18.89,31.76-26.12,57.91-26.12c30.52,0,50.21,10.46,65.51,34.57c18.09-24.11,40.19-34.57,71.55-34.57
				c58.71,0,90.07,32.57,90.07,99.28v128.7H1016.09z"/>
			<linearGradient id="SVGID_3_" gradientUnits="userSpaceOnUse" x1="1200.42" y1="146.4189" x2="1200.42" y2="379.5869">
				<stop  offset="0" style="stop-color:#16498D"/>
				<stop  offset="1" style="stop-color:#04A0D4"/>
			</linearGradient>
			<path class="st2" d="M1314.61,286.72h-172.5c6.43,26.91,29.75,43.81,61.49,43.81c22.12,0,35.38-6.04,49.05-22.1h58.34
				c-14.92,45.82-61.15,71.15-106.14,71.15c-67.95,0-120.63-50.67-120.63-115.78c0-65.56,51.87-117.39,117.4-117.39
				c66.3,0,114.99,50.68,114.99,119.79C1316.62,274.25,1316.19,279.09,1314.61,286.72z M1202.44,195.46
				c-31.78,0-53.5,15.68-61.96,44.24h123.46C1257.13,211.13,1235.38,195.46,1202.44,195.46z"/>
			<linearGradient id="SVGID_4_" gradientUnits="userSpaceOnUse" x1="1448.1887" y1="77.2825" x2="1448.1887" y2="379.5869">
				<stop  offset="0" style="stop-color:#16498D"/>
				<stop  offset="1" style="stop-color:#04A0D4"/>
			</linearGradient>
			<path class="st3" d="M1516.37,374.4v-28.99c-21.3,24.13-43.45,34.17-73.56,34.17c-63.15,0-111.82-51.04-111.82-116.99
				c0-66.73,49.07-119.01,111.39-119.01c28.14,0,53.83,10.47,69.55,27.77V77.28h53.45V374.4H1516.37z M1450.04,192.66
				c-36.61,0-65.16,29.75-65.16,67.55c0,39.37,28.95,70.33,66.35,70.33c36.19,0,64.74-30.15,64.74-68.75
				C1515.96,222.83,1487.41,192.66,1450.04,192.66z"/>
			<linearGradient id="SVGID_5_" gradientUnits="userSpaceOnUse" x1="1699.3335" y1="146.4189" x2="1699.3335" y2="379.5869">
				<stop  offset="0" style="stop-color:#16498D"/>
				<stop  offset="1" style="stop-color:#04A0D4"/>
			</linearGradient>
			<path class="st4" d="M1699.14,379.59c-65.14,0-118.2-52.26-118.2-116.56c0-63.97,53.05-116.61,117.79-116.61
				c67.13,0,118.98,51.83,118.98,118.2C1817.72,327.33,1763.85,379.59,1699.14,379.59z M1699.14,195.46
				c-35.02,0-64.32,30.18-64.32,66.74c0,38.19,28.54,68.34,64.71,68.34c35.41,0,64.32-30.15,64.32-67.51
				C1763.85,226.02,1734.93,195.46,1699.14,195.46z"/>
		</g>
	</g>
	<g>
		<g>
			<g>
				<linearGradient id="SVGID_6_" gradientUnits="userSpaceOnUse" x1="-2.381061e-05" y1="172.0244" x2="221.9435" y2="172.0244">
					<stop  offset="0" style="stop-color:#16498D"/>
					<stop  offset="1" style="stop-color:#04A0D4"/>
				</linearGradient>
				<path class="st5" d="M31.87,314.33l23.27,7.6c-12.94-26.29-20.23-55.88-20.23-87.17c0-99.17,73.04-181.26,168.27-195.46
					l18.76-20.71L203.24,4C88.63,18.43,0,116.23,0,234.75c0,37.9,9.07,73.68,25.15,105.3L31.87,314.33z"/>
				<linearGradient id="SVGID_7_" gradientUnits="userSpaceOnUse" x1="245.5824" y1="168.3115" x2="465.1549" y2="168.3115">
					<stop  offset="0" style="stop-color:#16498D"/>
					<stop  offset="1" style="stop-color:#04A0D4"/>
				</linearGradient>
				<path class="st6" d="M264.18,20.87l-18.6,16.68c103.09,6.69,184.62,92.41,184.62,197.21c0,25.79-4.94,50.42-13.92,73l8.32,26.33
					l22.34-8.96c11.73-27.79,18.21-58.32,18.21-90.38C465.15,110.66,368,9.29,245.61,2.53L264.18,20.87z"/>
				<linearGradient id="SVGID_8_" gradientUnits="userSpaceOnUse" x1="47.7377" y1="406.3668" x2="426.9397" y2="406.3668">
					<stop  offset="0" style="stop-color:#16498D"/>
					<stop  offset="1" style="stop-color:#04A0D4"/>
				</linearGradient>
				<path class="st7" d="M401.38,369.43l-4.99-24.05c-35.52,52.51-95.62,87.02-163.79,87.02c-62.64,0-118.47-29.14-154.69-74.59
					l-26.87-5.79l-3.29,23.91c42.5,55.57,109.48,91.43,184.86,91.43c81.26,0,152.76-41.69,194.35-104.84L401.38,369.43z"/>
			</g>
		</g>
	</g>
	<g>
		<linearGradient id="SVGID_9_" gradientUnits="userSpaceOnUse" x1="521.6343" y1="411.0661" x2="521.6343" y2="511.0218">
			<stop  offset="0" style="stop-color:#16498D"/>
			<stop  offset="1" style="stop-color:#04A0D4"/>
		</linearGradient>
		<path class="st8" d="M552.71,498.37c0.72,1.35,1.35,2.65,1.89,3.9c0.53,1.26,0.94,2.56,1.21,3.9c-3.05,1.52-6.68,2.71-10.9,3.57
			c-4.22,0.85-8.66,1.28-13.32,1.28c-6.54,0-12.53-1.08-17.96-3.23c-5.43-2.15-10.07-5.29-13.92-9.42
			c-3.86-4.12-6.86-9.23-9.01-15.34c-2.15-6.1-3.23-13.09-3.23-20.99c0-8.07,1.05-15.27,3.16-21.59c2.11-6.32,5.07-11.66,8.88-16.01
			c3.81-4.35,8.43-7.67,13.85-9.95c5.43-2.29,11.5-3.43,18.23-3.43c5.65,0,10.36,0.4,14.13,1.21s6.5,1.48,8.21,2.02
			c-0.18,1.61-0.43,2.96-0.74,4.04c-0.31,1.07-0.78,2.38-1.41,3.9c-1.17-0.36-2.36-0.72-3.57-1.08c-1.21-0.36-2.58-0.67-4.1-0.94
			c-1.53-0.27-3.3-0.49-5.31-0.67s-4.37-0.27-7.06-0.27c-5.29,0-10.05,0.96-14.26,2.89c-4.22,1.93-7.8,4.73-10.76,8.41
			c-2.96,3.68-5.25,8.16-6.86,13.45c-1.61,5.29-2.42,11.3-2.42,18.03c0,6.91,0.9,12.91,2.69,18.03c1.79,5.11,4.28,9.35,7.47,12.71
			c3.18,3.36,6.91,5.85,11.17,7.47c4.26,1.61,8.86,2.42,13.79,2.42c4.21,0,8.05-0.41,11.5-1.21
			C547.48,500.66,550.38,499.63,552.71,498.37z"/>
		<linearGradient id="SVGID_10_" gradientUnits="userSpaceOnUse" x1="596.5638" y1="439.1798" x2="596.5638" y2="511.0218">
			<stop  offset="0" style="stop-color:#16498D"/>
			<stop  offset="1" style="stop-color:#04A0D4"/>
		</linearGradient>
		<path class="st9" d="M596.57,511.02c-5.11,0-9.6-0.92-13.45-2.76c-3.86-1.84-7.06-4.37-9.62-7.6c-2.56-3.23-4.46-7.04-5.72-11.43
			c-1.26-4.39-1.89-9.1-1.89-14.13c0-5.02,0.63-9.73,1.89-14.13c1.25-4.39,3.16-8.21,5.72-11.43s5.76-5.76,9.62-7.6
			c3.85-1.84,8.34-2.76,13.45-2.76c5.11,0,9.57,0.92,13.38,2.76c3.81,1.84,7,4.37,9.55,7.6s4.49,7.04,5.79,11.43
			c1.3,4.4,1.95,9.11,1.95,14.13c0,5.03-0.65,9.73-1.95,14.13s-3.23,8.21-5.79,11.43c-2.56,3.23-5.74,5.77-9.55,7.6
			S601.68,511.02,596.57,511.02z M596.57,503.22c7.17,0,12.53-2.51,16.08-7.53c3.54-5.02,5.31-11.88,5.31-20.58
			s-1.77-15.56-5.31-20.58c-3.55-5.02-8.9-7.53-16.08-7.53c-7.18,0-12.54,2.51-16.08,7.53c-3.54,5.03-5.31,11.88-5.31,20.58
			s1.77,15.56,5.31,20.58C584.03,500.71,589.39,503.22,596.57,503.22z"/>
		<linearGradient id="SVGID_11_" gradientUnits="userSpaceOnUse" x1="672.9788" y1="439.1798" x2="672.9788" y2="509.675">
			<stop  offset="0" style="stop-color:#16498D"/>
			<stop  offset="1" style="stop-color:#04A0D4"/>
		</linearGradient>
		<path class="st10" d="M645.67,440.8c0.72-0.09,1.41-0.16,2.08-0.2c0.68-0.04,1.32-0.07,1.95-0.07c0.72,0,1.39,0.02,2.02,0.07
			c0.62,0.04,1.3,0.11,2.02,0.2c0.18,1.61,0.31,3.63,0.4,6.05c0.09,2.42,0.13,4.53,0.13,6.32c0.9-1.61,2.06-3.25,3.5-4.91
			c1.44-1.66,3.12-3.16,5.05-4.51c1.93-1.35,4.15-2.44,6.66-3.3c2.51-0.85,5.25-1.28,8.21-1.28c7.89,0,13.63,2.36,17.22,7.06
			c3.59,4.71,5.38,11.33,5.38,19.84v43.32c-0.54,0.09-1.28,0.16-2.22,0.2c-0.94,0.04-1.68,0.07-2.22,0.07
			c-0.45,0-1.17-0.02-2.15-0.07c-0.99-0.04-1.75-0.11-2.29-0.2v-40.63c0-7.62-1.19-13.09-3.57-16.41s-5.94-4.98-10.69-4.98
			c-3.14,0-6.1,0.63-8.88,1.88c-2.78,1.26-5.18,3.07-7.2,5.45c-2.02,2.38-3.61,5.31-4.78,8.81s-1.75,7.49-1.75,11.97v33.9
			c-0.54,0.09-1.28,0.16-2.22,0.2s-1.68,0.07-2.22,0.07c-0.45,0-1.17-0.02-2.15-0.07c-0.99-0.04-1.75-0.11-2.29-0.2V440.8z"/>
		<linearGradient id="SVGID_12_" gradientUnits="userSpaceOnUse" x1="748.5837" y1="439.1798" x2="748.5837" y2="509.675">
			<stop  offset="0" style="stop-color:#16498D"/>
			<stop  offset="1" style="stop-color:#04A0D4"/>
		</linearGradient>
		<path class="st11" d="M721.27,440.8c0.72-0.09,1.41-0.16,2.08-0.2c0.68-0.04,1.32-0.07,1.95-0.07c0.72,0,1.39,0.02,2.02,0.07
			c0.62,0.04,1.3,0.11,2.02,0.2c0.18,1.61,0.31,3.63,0.4,6.05c0.09,2.42,0.13,4.53,0.13,6.32c0.9-1.61,2.06-3.25,3.5-4.91
			c1.44-1.66,3.12-3.16,5.05-4.51c1.93-1.35,4.15-2.44,6.66-3.3c2.51-0.85,5.25-1.28,8.21-1.28c7.89,0,13.63,2.36,17.22,7.06
			c3.59,4.71,5.38,11.33,5.38,19.84v43.32c-0.54,0.09-1.28,0.16-2.22,0.2c-0.94,0.04-1.68,0.07-2.22,0.07
			c-0.45,0-1.17-0.02-2.15-0.07c-0.99-0.04-1.75-0.11-2.29-0.2v-40.63c0-7.62-1.19-13.09-3.57-16.41
			c-2.38-3.32-5.94-4.98-10.69-4.98c-3.14,0-6.1,0.63-8.88,1.88c-2.78,1.26-5.18,3.07-7.2,5.45c-2.02,2.38-3.61,5.31-4.78,8.81
			c-1.17,3.5-1.75,7.49-1.75,11.97v33.9c-0.54,0.09-1.28,0.16-2.22,0.2s-1.68,0.07-2.22,0.07c-0.45,0-1.17-0.02-2.15-0.07
			c-0.99-0.04-1.75-0.11-2.29-0.2V440.8z"/>
		<linearGradient id="SVGID_13_" gradientUnits="userSpaceOnUse" x1="822.4399" y1="439.1798" x2="822.4399" y2="511.0218">
			<stop  offset="0" style="stop-color:#16498D"/>
			<stop  offset="1" style="stop-color:#04A0D4"/>
		</linearGradient>
		<path class="st12" d="M802.53,476.45c0,9.15,2.11,15.87,6.32,20.18c4.21,4.31,10.54,6.46,18.97,6.46c3.41,0,6.57-0.29,9.48-0.87
			s5.77-1.37,8.54-2.36c0.45,0.99,0.81,2.2,1.08,3.63c0.27,1.44,0.45,2.73,0.54,3.9c-2.61,1.17-5.65,2.06-9.15,2.69
			c-3.5,0.63-7.31,0.94-11.43,0.94c-5.92,0-11.01-0.88-15.27-2.63c-4.26-1.75-7.76-4.19-10.49-7.33c-2.74-3.14-4.76-6.88-6.05-11.23
			c-1.3-4.35-1.95-9.13-1.95-14.33c0-5.02,0.6-9.73,1.82-14.12c1.21-4.39,3.05-8.25,5.52-11.57c2.46-3.32,5.62-5.92,9.48-7.8
			c3.86-1.88,8.47-2.83,13.85-2.83c4.49,0,8.47,0.76,11.98,2.29c3.5,1.53,6.43,3.65,8.81,6.39c2.38,2.73,4.17,6.01,5.38,9.82
			c1.21,3.81,1.82,7.96,1.82,12.44c0,0.81-0.02,1.84-0.07,3.09c-0.05,1.26-0.11,2.34-0.2,3.23H802.53z M842.89,469.05
			c0-2.78-0.36-5.52-1.08-8.21c-0.72-2.69-1.84-5.05-3.36-7.06c-1.53-2.02-3.5-3.65-5.92-4.91c-2.42-1.25-5.33-1.89-8.74-1.89
			c-6.28,0-11.16,1.93-14.66,5.79c-3.5,3.86-5.61,9.28-6.32,16.28H842.89z"/>
		<linearGradient id="SVGID_14_" gradientUnits="userSpaceOnUse" x1="891.7873" y1="439.1798" x2="891.7873" y2="511.0218">
			<stop  offset="0" style="stop-color:#16498D"/>
			<stop  offset="1" style="stop-color:#04A0D4"/>
		</linearGradient>
		<path class="st13" d="M915.4,500.79c0.45,0.9,0.88,2.11,1.28,3.63c0.4,1.52,0.7,2.78,0.88,3.77c-2.24,0.81-4.8,1.48-7.67,2.02
			c-2.87,0.54-6.05,0.81-9.55,0.81c-11.21,0-19.73-3.07-25.56-9.22c-5.83-6.14-8.74-15.04-8.74-26.7c0-5.11,0.72-9.84,2.15-14.19
			c1.43-4.35,3.54-8.14,6.32-11.37c2.78-3.23,6.26-5.76,10.43-7.6c4.17-1.84,8.99-2.76,14.46-2.76c3.41,0,6.66,0.25,9.75,0.74
			c3.1,0.49,5.54,1.06,7.33,1.68c0,1.17-0.16,2.51-0.47,4.04c-0.32,1.52-0.65,2.73-1.01,3.63c-1.8-0.63-4.06-1.17-6.79-1.61
			c-2.74-0.45-5.67-0.68-8.81-0.68c-4.04,0-7.56,0.7-10.56,2.09c-3,1.39-5.52,3.34-7.53,5.85c-2.02,2.51-3.52,5.47-4.51,8.88
			c-0.98,3.41-1.48,7.18-1.48,11.3c0,9.68,2.31,16.8,6.93,21.32c4.62,4.53,10.87,6.79,18.77,6.79c2.69,0,5.27-0.23,7.73-0.68
			C911.2,502.1,913.42,501.51,915.4,500.79z"/>
		<linearGradient id="SVGID_15_" gradientUnits="userSpaceOnUse" x1="944.521" y1="419.6735" x2="944.521" y2="510.8851">
			<stop  offset="0" style="stop-color:#16498D"/>
			<stop  offset="1" style="stop-color:#04A0D4"/>
		</linearGradient>
		<path class="st14" d="M936.25,448.33h-11.7c-0.09-0.45-0.16-1.03-0.2-1.75c-0.05-0.72-0.07-1.44-0.07-2.15
			c0-0.72,0.02-1.39,0.07-2.02c0.04-0.62,0.11-1.16,0.2-1.61h11.7v-12.92l8.34-8.21h0.54v21.12h18.57c0.09,0.45,0.16,0.99,0.2,1.61
			c0.04,0.63,0.07,1.3,0.07,2.02c0,0.72-0.02,1.44-0.07,2.15c-0.04,0.72-0.11,1.3-0.2,1.75h-18.57v44.67c0,2.24,0.29,4.01,0.87,5.31
			c0.58,1.3,1.35,2.31,2.29,3.03c0.94,0.72,2.02,1.19,3.23,1.42c1.21,0.23,2.44,0.33,3.7,0.33c3.14,0,5.87-0.4,8.21-1.21
			c0.63,2.33,1.08,4.84,1.35,7.53c-3.23,0.98-7,1.48-11.3,1.48c-5.11,0-9.26-1.37-12.45-4.1c-3.18-2.73-4.78-7.2-4.78-13.38V448.33z
			"/>
		<linearGradient id="SVGID_16_" gradientUnits="userSpaceOnUse" x1="981.5837" y1="412.4089" x2="981.5837" y2="509.675">
			<stop  offset="0" style="stop-color:#16498D"/>
			<stop  offset="1" style="stop-color:#04A0D4"/>
		</linearGradient>
		<path class="st15" d="M981.58,448.33h-8.61c-0.09-0.45-0.16-0.98-0.2-1.62c-0.04-0.63-0.06-1.3-0.06-2.02
			c0-0.72,0.02-1.43,0.06-2.15c0.04-0.72,0.11-1.3,0.2-1.75h17.49v68.61c-0.54,0.09-1.28,0.16-2.22,0.2
			c-0.94,0.04-1.68,0.07-2.22,0.07c-0.45,0-1.17-0.02-2.15-0.07c-0.99-0.04-1.75-0.11-2.29-0.2V448.33z M977.14,423.98
			c-0.09-0.81-0.16-1.79-0.2-2.96c-0.05-1.17-0.07-2.15-0.07-2.96c0-0.72,0.02-1.62,0.07-2.69c0.04-1.07,0.11-1.97,0.2-2.69
			c0.81-0.09,1.79-0.16,2.96-0.2s2.15-0.07,2.96-0.07c0.72,0,1.62,0.02,2.69,0.07c1.08,0.04,1.97,0.11,2.69,0.2
			c0.09,0.72,0.15,1.62,0.2,2.69c0.04,1.08,0.07,1.97,0.07,2.69c0,0.8-0.02,1.79-0.07,2.96c-0.05,1.17-0.11,2.15-0.2,2.96
			c-0.72,0.09-1.62,0.16-2.69,0.2c-1.07,0.05-1.97,0.07-2.69,0.07c-0.81,0-1.79-0.02-2.96-0.07
			C978.94,424.14,977.95,424.07,977.14,423.98z"/>
		<linearGradient id="SVGID_17_" gradientUnits="userSpaceOnUse" x1="1040.1046" y1="439.1798" x2="1040.1046" y2="509.675">
			<stop  offset="0" style="stop-color:#16498D"/>
			<stop  offset="1" style="stop-color:#04A0D4"/>
		</linearGradient>
		<path class="st16" d="M1012.79,440.8c0.72-0.09,1.41-0.16,2.08-0.2c0.68-0.04,1.32-0.07,1.95-0.07c0.72,0,1.39,0.02,2.02,0.07
			c0.62,0.04,1.3,0.11,2.02,0.2c0.18,1.61,0.31,3.63,0.4,6.05c0.09,2.42,0.13,4.53,0.13,6.32c0.9-1.61,2.06-3.25,3.5-4.91
			c1.44-1.66,3.12-3.16,5.05-4.51c1.93-1.35,4.15-2.44,6.66-3.3c2.51-0.85,5.25-1.28,8.21-1.28c7.89,0,13.63,2.36,17.22,7.06
			c3.59,4.71,5.38,11.33,5.38,19.84v43.32c-0.54,0.09-1.28,0.16-2.22,0.2c-0.94,0.04-1.68,0.07-2.22,0.07
			c-0.45,0-1.17-0.02-2.15-0.07c-0.99-0.04-1.75-0.11-2.29-0.2v-40.63c0-7.62-1.19-13.09-3.57-16.41s-5.94-4.98-10.69-4.98
			c-3.14,0-6.1,0.63-8.88,1.88c-2.78,1.26-5.18,3.07-7.2,5.45c-2.02,2.38-3.61,5.31-4.78,8.81c-1.17,3.5-1.75,7.49-1.75,11.97v33.9
			c-0.54,0.09-1.28,0.16-2.22,0.2s-1.68,0.07-2.22,0.07c-0.45,0-1.17-0.02-2.15-0.07c-0.99-0.04-1.75-0.11-2.29-0.2V440.8z"/>
		<linearGradient id="SVGID_18_" gradientUnits="userSpaceOnUse" x1="1114.6321" y1="439.1798" x2="1114.6321" y2="542.9024">
			<stop  offset="0" style="stop-color:#16498D"/>
			<stop  offset="1" style="stop-color:#04A0D4"/>
		</linearGradient>
		<path class="st17" d="M1123.78,502.54c7.89,0.18,13.52,1.82,16.89,4.91c3.36,3.09,5.05,7.2,5.05,12.31c0,3.5-0.9,6.66-2.69,9.48
			c-1.8,2.83-4.31,5.25-7.53,7.26c-3.23,2.02-7.06,3.59-11.5,4.71c-4.44,1.12-9.26,1.68-14.46,1.68c-4.03,0-7.73-0.31-11.1-0.94
			c-3.36-0.63-6.28-1.64-8.74-3.03c-2.47-1.39-4.37-3.23-5.72-5.52c-1.34-2.29-2.01-5.09-2.01-8.41c0-3.41,0.98-6.68,2.96-9.82
			c1.97-3.14,4.53-5.47,7.67-7c-1.7-1.08-3.14-2.44-4.31-4.1c-1.17-1.66-1.75-3.7-1.75-6.12c0-3.5,0.83-6.41,2.49-8.74
			s3.88-4.44,6.66-6.32c-3.14-1.97-5.65-4.62-7.53-7.94c-1.89-3.32-2.83-7.26-2.83-11.84c0-3.32,0.56-6.44,1.68-9.35
			c1.12-2.91,2.8-5.45,5.05-7.6c2.24-2.15,5-3.85,8.27-5.11c3.27-1.25,7.06-1.89,11.37-1.89c3.67,0,6.95,0.47,9.82,1.42
			c2.87,0.94,5.38,2.17,7.53,3.7c0.89-0.36,2.01-0.76,3.36-1.21c1.35-0.45,2.83-0.83,4.44-1.15c1.62-0.31,3.27-0.58,4.98-0.8
			c1.7-0.23,3.36-0.34,4.98-0.34c0.36,1.35,0.53,2.83,0.53,4.44c0,1.7-0.18,3.23-0.53,4.58h-12.78c1.25,1.97,2.22,4.06,2.89,6.26
			c0.67,2.2,1.01,4.55,1.01,7.06c0,3.86-0.67,7.26-2.02,10.22c-1.34,2.96-3.21,5.45-5.58,7.47s-5.16,3.57-8.34,4.64
			c-3.18,1.07-6.62,1.61-10.29,1.61c-3.86,0-7.22-0.49-10.09-1.48c-2.51,1.62-4.28,3.16-5.31,4.64c-1.03,1.48-1.55,3.16-1.55,5.04
			c0,0.9,0.14,1.75,0.41,2.56c0.27,0.81,0.83,1.55,1.68,2.22c0.85,0.68,2.04,1.21,3.57,1.62c1.52,0.4,3.5,0.6,5.92,0.6
			L1123.78,502.54z M1104.68,510.62c-4.22-0.09-7.6,1.1-10.16,3.57c-2.55,2.46-3.83,5.72-3.83,9.75c0,2.15,0.49,3.94,1.48,5.38
			c0.98,1.43,2.35,2.55,4.1,3.36c1.75,0.81,3.79,1.37,6.12,1.68c2.33,0.31,4.8,0.47,7.4,0.47c8.34,0,14.84-1.41,19.51-4.24
			c4.66-2.82,7-6.21,7-10.16c0-3.41-1.17-5.83-3.5-7.26c-2.34-1.44-6.15-2.2-11.44-2.29L1104.68,510.62z M1094.72,463.13
			c0,4.66,1.37,8.59,4.1,11.77c2.73,3.18,7.02,4.78,12.85,4.78c5.83,0,10.14-1.59,12.91-4.78c2.78-3.18,4.17-7.11,4.17-11.77
			c0-4.66-1.4-8.59-4.17-11.77c-2.78-3.18-7.08-4.78-12.91-4.78c-5.83,0-10.11,1.59-12.85,4.78
			C1096.09,454.54,1094.72,458.46,1094.72,463.13z"/>
		<linearGradient id="SVGID_19_" gradientUnits="userSpaceOnUse" x1="1226.2906" y1="412.4089" x2="1226.2906" y2="509.675">
			<stop  offset="0" style="stop-color:#16498D"/>
			<stop  offset="1" style="stop-color:#04A0D4"/>
		</linearGradient>
		<path class="st18" d="M1193.2,412.68c0.63-0.09,1.39-0.16,2.29-0.2c0.89-0.04,1.7-0.07,2.42-0.07c0.81,0,1.62,0.02,2.42,0.07
			c0.81,0.04,1.52,0.11,2.15,0.2v41.17h47.62v-41.17c0.62-0.09,1.34-0.16,2.15-0.2c0.81-0.04,1.62-0.07,2.42-0.07
			c0.72,0,1.52,0.02,2.42,0.07c0.89,0.04,1.66,0.11,2.29,0.2v96.73c-0.54,0.09-1.23,0.16-2.09,0.2s-1.73,0.07-2.63,0.07
			c-0.8,0-1.61-0.02-2.42-0.07c-0.81-0.04-1.53-0.11-2.15-0.2v-47.09h-47.62v47.09c-0.63,0.09-1.35,0.16-2.15,0.2
			c-0.8,0.04-1.61,0.07-2.42,0.07c-0.9,0-1.77-0.02-2.63-0.07s-1.54-0.11-2.08-0.2V412.68z"/>
		<linearGradient id="SVGID_20_" gradientUnits="userSpaceOnUse" x1="1309.0236" y1="439.1798" x2="1309.0236" y2="511.0218">
			<stop  offset="0" style="stop-color:#16498D"/>
			<stop  offset="1" style="stop-color:#04A0D4"/>
		</linearGradient>
		<path class="st19" d="M1289.11,476.45c0,9.15,2.11,15.87,6.32,20.18c4.21,4.31,10.54,6.46,18.97,6.46c3.41,0,6.57-0.29,9.48-0.87
			s5.77-1.37,8.54-2.36c0.45,0.99,0.81,2.2,1.08,3.63c0.27,1.44,0.45,2.73,0.54,3.9c-2.61,1.17-5.65,2.06-9.15,2.69
			c-3.5,0.63-7.31,0.94-11.43,0.94c-5.92,0-11.01-0.88-15.27-2.63c-4.26-1.75-7.76-4.19-10.49-7.33c-2.74-3.14-4.76-6.88-6.05-11.23
			c-1.3-4.35-1.95-9.13-1.95-14.33c0-5.02,0.6-9.73,1.82-14.12c1.21-4.39,3.05-8.25,5.52-11.57c2.46-3.32,5.62-5.92,9.48-7.8
			c3.86-1.88,8.47-2.83,13.85-2.83c4.49,0,8.47,0.76,11.98,2.29c3.5,1.53,6.43,3.65,8.81,6.39c2.38,2.73,4.17,6.01,5.38,9.82
			c1.21,3.81,1.82,7.96,1.82,12.44c0,0.81-0.02,1.84-0.07,3.09c-0.05,1.26-0.11,2.34-0.2,3.23H1289.11z M1329.47,469.05
			c0-2.78-0.36-5.52-1.08-8.21c-0.72-2.69-1.84-5.05-3.36-7.06c-1.53-2.02-3.5-3.65-5.92-4.91c-2.42-1.25-5.33-1.89-8.74-1.89
			c-6.28,0-11.16,1.93-14.66,5.79c-3.5,3.86-5.61,9.28-6.32,16.28H1329.47z"/>
		<linearGradient id="SVGID_21_" gradientUnits="userSpaceOnUse" x1="1377.6353" y1="439.1798" x2="1377.6353" y2="511.0218">
			<stop  offset="0" style="stop-color:#16498D"/>
			<stop  offset="1" style="stop-color:#04A0D4"/>
		</linearGradient>
		<path class="st20" d="M1394.32,464.07c0-5.92-1.4-10.24-4.18-12.98c-2.78-2.73-6.9-4.1-12.37-4.1c-3.59,0-6.87,0.25-9.83,0.74
			c-2.96,0.49-5.6,1.1-7.94,1.82c-0.45-0.81-0.83-1.97-1.15-3.5c-0.31-1.52-0.47-2.96-0.47-4.31c2.33-0.72,5.2-1.32,8.61-1.82
			c3.4-0.49,6.91-0.74,10.49-0.74c8.7,0,15.15,1.91,19.38,5.72c4.21,3.81,6.32,9.8,6.32,17.96v45.34
			c-3.14,0.63-6.95,1.25-11.43,1.88c-4.49,0.63-8.75,0.94-12.78,0.94c-8.35,0-14.91-1.66-19.71-4.98c-4.8-3.32-7.2-8.7-7.2-16.14
			c0-3.59,0.7-6.79,2.09-9.62c1.39-2.82,3.32-5.2,5.79-7.13c2.46-1.93,5.43-3.39,8.88-4.37c3.45-0.98,7.24-1.48,11.36-1.48
			c3.23,0,6.01,0.11,8.35,0.34c2.33,0.23,4.26,0.43,5.79,0.6V464.07z M1394.32,476.04c-1.53-0.18-3.44-0.38-5.72-0.6
			c-2.28-0.23-4.45-0.34-6.53-0.34c-6.72,0-11.92,1.26-15.6,3.77c-3.68,2.51-5.52,6.1-5.52,10.76c0,2.96,0.56,5.33,1.68,7.13
			c1.12,1.8,2.58,3.16,4.37,4.1c1.79,0.94,3.77,1.57,5.93,1.89c2.14,0.31,4.29,0.47,6.45,0.47c2.78,0,5.39-0.14,7.8-0.41
			c2.43-0.27,4.81-0.62,7.14-1.07V476.04z"/>
		<linearGradient id="SVGID_22_" gradientUnits="userSpaceOnUse" x1="1436.2847" y1="410.2581" x2="1436.2847" y2="510.6157">
			<stop  offset="0" style="stop-color:#16498D"/>
			<stop  offset="1" style="stop-color:#04A0D4"/>
		</linearGradient>
		<path class="st21" d="M1424.18,410.53c0.54-0.09,1.28-0.16,2.22-0.2c0.95-0.04,1.69-0.07,2.23-0.07c0.44,0,1.16,0.02,2.15,0.07
			s1.75,0.11,2.29,0.2v83c0,2.34,0.27,4.15,0.8,5.45c0.54,1.3,1.21,2.24,2.02,2.82c0.8,0.59,1.7,0.94,2.69,1.08
			c0.98,0.14,1.88,0.2,2.69,0.2c0.99,0,2.02-0.06,3.1-0.2c1.08-0.13,1.97-0.29,2.69-0.47c0.44,1.08,0.76,2.24,0.94,3.5
			c0.18,1.26,0.31,2.42,0.4,3.5c-1.25,0.45-2.67,0.76-4.24,0.94s-3.02,0.27-4.37,0.27c-1.88,0-3.76-0.2-5.65-0.6
			c-1.88-0.41-3.56-1.17-5.04-2.29c-1.48-1.12-2.67-2.65-3.56-4.58c-0.9-1.93-1.35-4.46-1.35-7.6V410.53z"/>
		<linearGradient id="SVGID_23_" gradientUnits="userSpaceOnUse" x1="1471.7354" y1="419.6735" x2="1471.7354" y2="510.8851">
			<stop  offset="0" style="stop-color:#16498D"/>
			<stop  offset="1" style="stop-color:#04A0D4"/>
		</linearGradient>
		<path class="st22" d="M1463.46,448.33h-11.7c-0.1-0.45-0.16-1.03-0.21-1.75c-0.04-0.72-0.06-1.44-0.06-2.15
			c0-0.72,0.02-1.39,0.06-2.02c0.05-0.62,0.11-1.16,0.21-1.61h11.7v-12.92l8.35-8.21h0.53v21.12h18.57
			c0.09,0.45,0.16,0.99,0.21,1.61c0.04,0.63,0.06,1.3,0.06,2.02c0,0.72-0.02,1.44-0.06,2.15c-0.05,0.72-0.12,1.3-0.21,1.75h-18.57
			v44.67c0,2.24,0.3,4.01,0.88,5.31c0.59,1.3,1.35,2.31,2.29,3.03c0.94,0.72,2.02,1.19,3.22,1.42c1.21,0.23,2.44,0.33,3.7,0.33
			c3.14,0,5.88-0.4,8.21-1.21c0.63,2.33,1.08,4.84,1.34,7.53c-3.22,0.98-7,1.48-11.3,1.48c-5.11,0-9.26-1.37-12.45-4.1
			c-3.18-2.73-4.78-7.2-4.78-13.38V448.33z"/>
		<linearGradient id="SVGID_24_" gradientUnits="userSpaceOnUse" x1="1531.9307" y1="410.2581" x2="1531.9307" y2="509.675">
			<stop  offset="0" style="stop-color:#16498D"/>
			<stop  offset="1" style="stop-color:#04A0D4"/>
		</linearGradient>
		<path class="st23" d="M1504.62,410.53c0.54-0.09,1.28-0.16,2.22-0.2c0.95-0.04,1.69-0.07,2.23-0.07c0.44,0,1.16,0.02,2.15,0.07
			s1.75,0.11,2.29,0.2v42.51c0.89-1.62,2.06-3.25,3.5-4.91c1.43-1.66,3.09-3.16,4.98-4.51c1.88-1.35,4.01-2.42,6.38-3.23
			c2.38-0.81,5-1.21,7.87-1.21c7.9,0,13.7,2.36,17.42,7.06c3.72,4.71,5.58,11.33,5.58,19.84v43.32c-0.54,0.09-1.28,0.16-2.22,0.2
			c-0.94,0.04-1.68,0.07-2.22,0.07c-0.45,0-1.17-0.02-2.15-0.07c-0.99-0.04-1.75-0.11-2.29-0.2v-40.63c0-7.62-1.25-13.09-3.76-16.41
			c-2.52-3.32-6.15-4.98-10.9-4.98c-3.14,0-6.07,0.58-8.81,1.75c-2.73,1.17-5.09,2.89-7.06,5.18c-1.97,2.29-3.52,5.16-4.64,8.61
			c-1.13,3.45-1.68,7.42-1.68,11.9v34.57c-0.54,0.09-1.28,0.16-2.22,0.2c-0.95,0.04-1.69,0.07-2.22,0.07
			c-0.45,0-1.17-0.02-2.15-0.07c-0.99-0.04-1.75-0.11-2.29-0.2V410.53z"/>
		<linearGradient id="SVGID_25_" gradientUnits="userSpaceOnUse" x1="1602.0881" y1="439.1798" x2="1602.0881" y2="511.0218">
			<stop  offset="0" style="stop-color:#16498D"/>
			<stop  offset="1" style="stop-color:#04A0D4"/>
		</linearGradient>
		<path class="st24" d="M1625.7,500.79c0.44,0.9,0.87,2.11,1.28,3.63c0.4,1.52,0.69,2.78,0.87,3.77c-2.24,0.81-4.8,1.48-7.66,2.02
			c-2.87,0.54-6.05,0.81-9.55,0.81c-11.22,0-19.73-3.07-25.56-9.22c-5.84-6.14-8.75-15.04-8.75-26.7c0-5.11,0.72-9.84,2.15-14.19
			c1.43-4.35,3.54-8.14,6.32-11.37s6.26-5.76,10.43-7.6c4.17-1.84,8.99-2.76,14.46-2.76c3.4,0,6.66,0.25,9.75,0.74
			c3.09,0.49,5.53,1.06,7.32,1.68c0,1.17-0.15,2.51-0.47,4.04s-0.65,2.73-1.01,3.63c-1.79-0.63-4.05-1.17-6.79-1.61
			c-2.73-0.45-5.67-0.68-8.8-0.68c-4.04,0-7.56,0.7-10.57,2.09c-3.01,1.39-5.52,3.34-7.53,5.85c-2.02,2.51-3.52,5.47-4.5,8.88
			c-0.99,3.41-1.48,7.18-1.48,11.3c0,9.68,2.31,16.8,6.92,21.32c4.62,4.53,10.88,6.79,18.77,6.79c2.69,0,5.27-0.23,7.73-0.68
			C1621.51,502.1,1623.73,501.51,1625.7,500.79z"/>
		<linearGradient id="SVGID_26_" gradientUnits="userSpaceOnUse" x1="1664.579" y1="439.1798" x2="1664.579" y2="511.0218">
			<stop  offset="0" style="stop-color:#16498D"/>
			<stop  offset="1" style="stop-color:#04A0D4"/>
		</linearGradient>
		<path class="st25" d="M1681.26,464.07c0-5.92-1.39-10.24-4.17-12.98c-2.78-2.73-6.91-4.1-12.37-4.1c-3.59,0-6.86,0.25-9.82,0.74
			c-2.97,0.49-5.61,1.1-7.94,1.82c-0.45-0.81-0.83-1.97-1.14-3.5c-0.31-1.52-0.47-2.96-0.47-4.31c2.33-0.72,5.19-1.32,8.6-1.82
			c3.41-0.49,6.91-0.74,10.49-0.74c8.7,0,15.16,1.91,19.38,5.72c4.21,3.81,6.32,9.8,6.32,17.96v45.34
			c-3.14,0.63-6.95,1.25-11.43,1.88c-4.49,0.63-8.75,0.94-12.78,0.94c-8.35,0-14.92-1.66-19.72-4.98c-4.79-3.32-7.2-8.7-7.2-16.14
			c0-3.59,0.7-6.79,2.09-9.62c1.38-2.82,3.31-5.2,5.78-7.13c2.47-1.93,5.43-3.39,8.88-4.37c3.46-0.98,7.24-1.48,11.37-1.48
			c3.23,0,6.01,0.11,8.34,0.34c2.33,0.23,4.26,0.43,5.79,0.6V464.07z M1681.26,476.04c-1.53-0.18-3.43-0.38-5.72-0.6
			c-2.29-0.23-4.46-0.34-6.53-0.34c-6.72,0-11.92,1.26-15.61,3.77c-3.67,2.51-5.51,6.1-5.51,10.76c0,2.96,0.55,5.33,1.68,7.13
			c1.12,1.8,2.57,3.16,4.37,4.1c1.79,0.94,3.77,1.57,5.93,1.89c2.15,0.31,4.3,0.47,6.46,0.47c2.77,0,5.38-0.14,7.8-0.41
			c2.42-0.27,4.8-0.62,7.13-1.07V476.04z"/>
		<linearGradient id="SVGID_27_" gradientUnits="userSpaceOnUse" x1="1727.3312" y1="440.5266" x2="1727.3312" y2="509.675">
			<stop  offset="0" style="stop-color:#16498D"/>
			<stop  offset="1" style="stop-color:#04A0D4"/>
		</linearGradient>
		<path class="st26" d="M1711.12,440.8c0.72-0.09,1.42-0.16,2.09-0.2c0.67-0.04,1.32-0.07,1.95-0.07c0.72,0,1.39,0.02,2.02,0.07
			c0.63,0.04,1.3,0.11,2.02,0.2c0.18,1.61,0.31,3.52,0.4,5.72c0.09,2.2,0.14,4.19,0.14,5.99c1.79-3.32,4.31-6.12,7.53-8.41
			c3.23-2.29,7.49-3.43,12.78-3.43c0.44,0,0.92,0,1.41,0s1.05,0.05,1.68,0.14c0.27,1.53,0.41,2.96,0.41,4.31
			c0,1.44-0.14,2.82-0.41,4.17c-0.72-0.09-1.27-0.13-1.68-0.13c-0.4,0-0.83,0-1.28,0c-6.09,0-10.98,1.93-14.66,5.79
			c-3.68,3.86-5.52,10.27-5.52,19.24v35.25c-0.54,0.09-1.28,0.16-2.22,0.2c-0.95,0.04-1.69,0.07-2.22,0.07
			c-0.45,0-1.17-0.02-2.15-0.07c-0.99-0.04-1.75-0.11-2.29-0.2V440.8z"/>
		<linearGradient id="SVGID_28_" gradientUnits="userSpaceOnUse" x1="1780.4066" y1="439.1798" x2="1780.4066" y2="511.0218">
			<stop  offset="0" style="stop-color:#16498D"/>
			<stop  offset="1" style="stop-color:#04A0D4"/>
		</linearGradient>
		<path class="st27" d="M1760.49,476.45c0,9.15,2.11,15.87,6.32,20.18c4.22,4.31,10.54,6.46,18.98,6.46c3.4,0,6.57-0.29,9.48-0.87
			c2.92-0.58,5.77-1.37,8.55-2.36c0.44,0.99,0.8,2.2,1.07,3.63c0.27,1.44,0.45,2.73,0.54,3.9c-2.6,1.17-5.64,2.06-9.14,2.69
			c-3.5,0.63-7.32,0.94-11.44,0.94c-5.92,0-11.01-0.88-15.27-2.63c-4.25-1.75-7.75-4.19-10.49-7.33c-2.73-3.14-4.75-6.88-6.05-11.23
			c-1.29-4.35-1.95-9.13-1.95-14.33c0-5.02,0.6-9.73,1.82-14.12c1.21-4.39,3.05-8.25,5.52-11.57c2.46-3.32,5.63-5.92,9.48-7.8
			c3.86-1.88,8.47-2.83,13.86-2.83c4.48,0,8.47,0.76,11.97,2.29c3.5,1.53,6.43,3.65,8.81,6.39c2.37,2.73,4.17,6.01,5.38,9.82
			c1.21,3.81,1.82,7.96,1.82,12.44c0,0.81-0.02,1.84-0.07,3.09c-0.04,1.26-0.11,2.34-0.2,3.23H1760.49z M1800.86,469.05
			c0-2.78-0.36-5.52-1.08-8.21c-0.72-2.69-1.84-5.05-3.37-7.06c-1.52-2.02-3.5-3.65-5.92-4.91c-2.42-1.25-5.34-1.89-8.74-1.89
			c-6.28,0-11.17,1.93-14.67,5.79c-3.5,3.86-5.6,9.28-6.32,16.28H1800.86z"/>
	</g>
	<linearGradient id="SVGID_29_" gradientUnits="userSpaceOnUse" x1="245.96" y1="96.0891" x2="245.96" y2="358.0988">
		<stop  offset="0" style="stop-color:#16498D"/>
		<stop  offset="1" style="stop-color:#04A0D4"/>
	</linearGradient>
	<path class="st28" d="M370.36,273.16h-43.99v-43.99h-40.96v43.99h-14.19l-48.38-47.41c9.37-0.78,17.86-3.28,25.36-7.71
		c9.11-5.38,16.16-12.97,21.15-22.79c4.98-9.81,7.47-21.19,7.47-34.15c0-12.95-2.49-24.33-7.47-34.15
		c-4.98-9.81-12.01-17.41-21.07-22.79c-9.07-5.38-19.58-8.07-31.53-8.07h-54.25h-24.66h-16.29v217.43h40.95v-87.06l105.88,87.65
		h17.03v43.99h40.96v-43.99h43.99V273.16z M213.47,135.54c4.28,0,8.02,1.05,11.21,3.14c3.19,2.09,5.65,5.08,7.4,8.97
		c1.74,3.88,2.61,8.37,2.61,13.45c-0.1,5.08-1.02,9.56-2.76,13.45c-1.75,3.89-4.21,6.87-7.4,8.97c-3.19,2.09-6.87,3.14-11.06,3.14
		h-50.96v-51.11H213.47z"/>
</g>
</svg>
